<?xml version="1.0" encoding="UTF-8"?>
<svg xmlns="http://www.w3.org/2000/svg" xmlns:xlink="http://www.w3.org/1999/xlink" width="18px" height="18px" viewBox="0 0 32 32" version="1.1">
<g id="surface1">
<path style=" stroke:none;fill-rule:nonzero;fill:rgba(173,173,173,255);fill-opacity:1;" d="M 3.363281 4.726562 C 3.476562 4.726562 3.59375 4.726562 3.707031 4.726562 C 4.015625 4.722656 4.328125 4.726562 4.636719 4.726562 C 4.972656 4.726562 5.308594 4.726562 5.644531 4.726562 C 6.304688 4.722656 6.960938 4.722656 7.617188 4.726562 C 8.152344 4.726562 8.6875 4.726562 9.21875 4.726562 C 9.296875 4.726562 9.371094 4.726562 9.449219 4.726562 C 9.605469 4.726562 9.757812 4.726562 9.914062 4.726562 C 11.363281 4.722656 12.8125 4.726562 14.257812 4.726562 C 15.503906 4.726562 16.746094 4.726562 17.988281 4.726562 C 19.429688 4.722656 20.875 4.722656 22.316406 4.726562 C 22.472656 4.726562 22.625 4.726562 22.78125 4.726562 C 22.855469 4.726562 22.929688 4.726562 23.007812 4.726562 C 23.542969 4.726562 24.078125 4.726562 24.609375 4.722656 C 25.261719 4.722656 25.910156 4.722656 26.5625 4.726562 C 26.894531 4.726562 27.222656 4.726562 27.554688 4.726562 C 27.859375 4.722656 28.164062 4.726562 28.46875 4.726562 C 28.578125 4.726562 28.6875 4.726562 28.796875 4.726562 C 29.34375 4.722656 29.859375 4.722656 30.375 4.9375 C 30.28125 5.132812 30.1875 5.261719 30.035156 5.414062 C 29.96875 5.476562 29.96875 5.476562 29.90625 5.539062 C 29.839844 5.605469 29.839844 5.605469 29.769531 5.671875 C 29.683594 5.757812 29.59375 5.84375 29.507812 5.929688 C 29.449219 5.984375 29.449219 5.984375 29.390625 6.042969 C 29.273438 6.164062 29.164062 6.285156 29.054688 6.414062 C 28.8125 6.691406 28.558594 6.949219 28.300781 7.210938 C 28.25 7.257812 28.199219 7.308594 28.148438 7.359375 C 27.984375 7.527344 27.816406 7.695312 27.648438 7.859375 C 27.53125 7.980469 27.410156 8.101562 27.292969 8.222656 C 26.933594 8.578125 26.574219 8.9375 26.21875 9.296875 C 26.050781 9.464844 25.878906 9.632812 25.710938 9.804688 C 25.152344 10.367188 24.589844 10.925781 24.027344 11.488281 C 23.882812 11.632812 23.738281 11.78125 23.59375 11.925781 C 23.539062 11.980469 23.539062 11.980469 23.484375 12.035156 C 22.898438 12.621094 22.3125 13.207031 21.726562 13.796875 C 21.125 14.398438 20.523438 15.003906 19.921875 15.605469 C 19.582031 15.941406 19.246094 16.28125 18.910156 16.621094 C 18.621094 16.910156 18.335938 17.195312 18.046875 17.484375 C 17.898438 17.628906 17.753906 17.777344 17.605469 17.921875 C 17.449219 18.082031 17.289062 18.242188 17.128906 18.402344 C 17.082031 18.449219 17.039062 18.492188 16.992188 18.542969 C 16.644531 18.882812 16.382812 19.007812 15.890625 19.023438 C 15.402344 18.941406 15.121094 18.65625 14.785156 18.316406 C 14.734375 18.265625 14.683594 18.214844 14.628906 18.160156 C 14.488281 18.019531 14.347656 17.878906 14.207031 17.734375 C 14.054688 17.582031 13.898438 17.429688 13.746094 17.277344 C 13.449219 16.976562 13.148438 16.679688 12.851562 16.378906 C 12.5 16.027344 12.152344 15.679688 11.804688 15.328125 C 11.179688 14.707031 10.558594 14.082031 9.9375 13.457031 C 9.332031 12.855469 8.730469 12.25 8.125 11.644531 C 8.089844 11.609375 8.050781 11.570312 8.011719 11.53125 C 7.863281 11.382812 7.714844 11.234375 7.566406 11.082031 C 6.988281 10.507812 6.414062 9.929688 5.835938 9.351562 C 5.664062 9.179688 5.492188 9.003906 5.316406 8.832031 C 4.953125 8.464844 4.585938 8.097656 4.222656 7.734375 C 4.070312 7.582031 3.917969 7.429688 3.769531 7.277344 C 3.605469 7.113281 3.441406 6.949219 3.277344 6.785156 C 3.207031 6.714844 3.207031 6.714844 3.132812 6.640625 C 2.882812 6.390625 2.640625 6.128906 2.410156 5.859375 C 2.234375 5.660156 2.039062 5.476562 1.847656 5.292969 C 1.769531 5.21875 1.699219 5.140625 1.625 5.0625 C 1.625 5.019531 1.625 4.980469 1.625 4.9375 C 2.191406 4.703125 2.765625 4.722656 3.363281 4.726562 Z M 3.363281 4.726562 "/>
<path style=" stroke:none;fill-rule:nonzero;fill:rgba(173,173,173,255);fill-opacity:1;" d="M 11.1875 17.3125 C 11.398438 17.410156 11.53125 17.519531 11.695312 17.6875 C 11.746094 17.738281 11.796875 17.789062 11.847656 17.839844 C 11.929688 17.921875 11.929688 17.921875 12.011719 18.007812 C 12.097656 18.097656 12.183594 18.183594 12.269531 18.269531 C 12.480469 18.484375 12.691406 18.699219 12.902344 18.914062 C 13.019531 19.035156 13.140625 19.15625 13.257812 19.277344 C 13.371094 19.390625 13.480469 19.503906 13.589844 19.617188 C 14.273438 20.304688 14.996094 20.738281 15.976562 20.765625 C 17.289062 20.75 18.066406 19.945312 18.941406 19.0625 C 18.992188 19.015625 19.042969 18.964844 19.09375 18.910156 C 19.253906 18.753906 19.410156 18.59375 19.570312 18.433594 C 19.679688 18.324219 19.789062 18.214844 19.894531 18.105469 C 20.160156 17.84375 20.421875 17.578125 20.6875 17.3125 C 20.933594 17.410156 21.097656 17.582031 21.28125 17.765625 C 21.3125 17.796875 21.347656 17.832031 21.382812 17.867188 C 21.496094 17.980469 21.609375 18.09375 21.722656 18.207031 C 21.804688 18.289062 21.882812 18.367188 21.964844 18.449219 C 22.1875 18.671875 22.40625 18.890625 22.628906 19.113281 C 22.859375 19.34375 23.089844 19.574219 23.320312 19.804688 C 23.707031 20.195312 24.097656 20.582031 24.484375 20.972656 C 24.929688 21.417969 25.378906 21.867188 25.828125 22.316406 C 26.304688 22.792969 26.78125 23.273438 27.261719 23.75 C 27.398438 23.886719 27.535156 24.023438 27.671875 24.160156 C 27.886719 24.378906 28.105469 24.59375 28.320312 24.8125 C 28.398438 24.890625 28.480469 24.96875 28.558594 25.050781 C 29.285156 25.773438 29.285156 25.773438 29.601562 26.148438 C 29.773438 26.347656 29.964844 26.527344 30.152344 26.707031 C 30.230469 26.78125 30.300781 26.859375 30.375 26.9375 C 30.375 26.980469 30.375 27.019531 30.375 27.0625 C 29.808594 27.296875 29.234375 27.277344 28.636719 27.273438 C 28.523438 27.273438 28.40625 27.273438 28.292969 27.273438 C 27.984375 27.277344 27.671875 27.273438 27.363281 27.273438 C 27.027344 27.273438 26.691406 27.273438 26.355469 27.273438 C 25.695312 27.277344 25.039062 27.277344 24.382812 27.273438 C 23.847656 27.273438 23.3125 27.273438 22.78125 27.273438 C 22.703125 27.273438 22.628906 27.273438 22.550781 27.273438 C 22.394531 27.273438 22.242188 27.273438 22.085938 27.273438 C 20.636719 27.277344 19.1875 27.273438 17.742188 27.273438 C 16.496094 27.273438 15.253906 27.273438 14.011719 27.273438 C 12.570312 27.277344 11.125 27.277344 9.683594 27.273438 C 9.527344 27.273438 9.375 27.273438 9.21875 27.273438 C 9.144531 27.273438 9.070312 27.273438 8.992188 27.273438 C 8.457031 27.273438 7.921875 27.273438 7.390625 27.277344 C 6.738281 27.277344 6.089844 27.277344 5.4375 27.273438 C 5.105469 27.273438 4.777344 27.273438 4.445312 27.273438 C 4.140625 27.277344 3.835938 27.273438 3.53125 27.273438 C 3.421875 27.273438 3.3125 27.273438 3.203125 27.273438 C 2.65625 27.277344 2.140625 27.277344 1.625 27.0625 C 1.710938 26.882812 1.792969 26.753906 1.9375 26.613281 C 1.976562 26.578125 2.011719 26.542969 2.050781 26.503906 C 2.089844 26.464844 2.128906 26.429688 2.167969 26.390625 C 2.390625 26.175781 2.609375 25.960938 2.808594 25.722656 C 3.140625 25.34375 3.5 24.992188 3.859375 24.636719 C 3.9375 24.554688 4.019531 24.476562 4.097656 24.394531 C 4.316406 24.179688 4.53125 23.960938 4.746094 23.746094 C 4.972656 23.519531 5.199219 23.292969 5.425781 23.066406 C 5.855469 22.640625 6.285156 22.210938 6.710938 21.78125 C 7.199219 21.296875 7.6875 20.808594 8.175781 20.320312 C 9.179688 19.316406 10.183594 18.316406 11.1875 17.3125 Z M 11.1875 17.3125 "/>
<path style=" stroke:none;fill-rule:nonzero;fill:rgba(173,173,173,255);fill-opacity:1;" d="M 0.25 6.3125 C 0.511719 6.433594 0.691406 6.609375 0.890625 6.8125 C 0.929688 6.851562 0.96875 6.890625 1.007812 6.929688 C 1.140625 7.0625 1.269531 7.191406 1.402344 7.324219 C 1.492188 7.417969 1.585938 7.511719 1.679688 7.605469 C 1.9375 7.859375 2.191406 8.113281 2.445312 8.367188 C 2.710938 8.632812 2.976562 8.902344 3.242188 9.167969 C 3.742188 9.667969 4.246094 10.171875 4.75 10.675781 C 5.320312 11.25 5.894531 11.824219 6.464844 12.398438 C 7.644531 13.578125 8.824219 14.757812 10 15.9375 C 9.898438 16.203125 9.699219 16.382812 9.5 16.578125 C 9.460938 16.617188 9.421875 16.65625 9.382812 16.695312 C 9.253906 16.828125 9.121094 16.957031 8.992188 17.089844 C 8.898438 17.179688 8.804688 17.273438 8.710938 17.367188 C 8.457031 17.625 8.203125 17.878906 7.949219 18.132812 C 7.683594 18.398438 7.417969 18.664062 7.152344 18.929688 C 6.707031 19.375 6.257812 19.820312 5.8125 20.265625 C 5.296875 20.78125 4.78125 21.296875 4.265625 21.8125 C 3.824219 22.257812 3.378906 22.699219 2.9375 23.140625 C 2.671875 23.40625 2.40625 23.671875 2.144531 23.9375 C 1.894531 24.183594 1.648438 24.433594 1.398438 24.679688 C 1.304688 24.773438 1.214844 24.863281 1.125 24.957031 C 1 25.082031 0.875 25.203125 0.75 25.328125 C 0.714844 25.367188 0.675781 25.402344 0.640625 25.441406 C 0.390625 25.6875 0.390625 25.6875 0.25 25.6875 C 0.0351562 25.195312 -0.0351562 24.773438 -0.03125 24.238281 C -0.03125 24.164062 -0.03125 24.089844 -0.03125 24.015625 C -0.0351562 23.8125 -0.0351562 23.609375 -0.03125 23.410156 C -0.03125 23.191406 -0.03125 22.96875 -0.0351562 22.75 C -0.0351562 22.324219 -0.0351562 21.894531 -0.0351562 21.46875 C -0.0351562 21.117188 -0.03125 20.769531 -0.0351562 20.421875 C -0.0351562 20.371094 -0.0351562 20.324219 -0.0351562 20.273438 C -0.0351562 20.171875 -0.0351562 20.070312 -0.0351562 19.96875 C -0.0351562 19.023438 -0.0351562 18.078125 -0.03125 17.132812 C -0.03125 16.324219 -0.03125 15.515625 -0.03125 14.703125 C -0.0351562 13.761719 -0.0351562 12.820312 -0.0351562 11.878906 C -0.0351562 11.777344 -0.0351562 11.679688 -0.0351562 11.578125 C -0.0351562 11.527344 -0.0351562 11.480469 -0.0351562 11.429688 C -0.03125 11.082031 -0.0351562 10.734375 -0.0351562 10.386719 C -0.0351562 9.960938 -0.0351562 9.539062 -0.0351562 9.113281 C -0.03125 8.898438 -0.03125 8.679688 -0.03125 8.464844 C -0.0351562 8.230469 -0.03125 7.996094 -0.03125 7.761719 C -0.03125 7.695312 -0.03125 7.625 -0.0351562 7.558594 C -0.0273438 7.097656 0.0664062 6.730469 0.25 6.3125 Z M 0.25 6.3125 "/>
<path style=" stroke:none;fill-rule:nonzero;fill:rgba(173,173,173,255);fill-opacity:1;" d="M 31.75 6.3125 C 31.964844 6.804688 32.035156 7.226562 32.03125 7.761719 C 32.03125 7.835938 32.03125 7.910156 32.03125 7.984375 C 32.035156 8.1875 32.035156 8.390625 32.03125 8.589844 C 32.03125 8.808594 32.03125 9.03125 32.035156 9.25 C 32.035156 9.675781 32.035156 10.105469 32.035156 10.53125 C 32.035156 10.882812 32.03125 11.230469 32.035156 11.578125 C 32.035156 11.628906 32.035156 11.675781 32.035156 11.726562 C 32.035156 11.828125 32.035156 11.929688 32.035156 12.03125 C 32.035156 12.976562 32.035156 13.921875 32.03125 14.867188 C 32.03125 15.675781 32.03125 16.484375 32.03125 17.296875 C 32.035156 18.238281 32.035156 19.179688 32.035156 20.121094 C 32.035156 20.222656 32.035156 20.320312 32.035156 20.421875 C 32.035156 20.496094 32.035156 20.496094 32.035156 20.570312 C 32.03125 20.917969 32.035156 21.265625 32.035156 21.613281 C 32.035156 22.039062 32.035156 22.460938 32.035156 22.886719 C 32.03125 23.101562 32.03125 23.320312 32.03125 23.535156 C 32.035156 23.769531 32.03125 24.003906 32.03125 24.238281 C 32.03125 24.304688 32.03125 24.375 32.035156 24.441406 C 32.027344 24.902344 31.933594 25.269531 31.75 25.6875 C 31.488281 25.566406 31.308594 25.390625 31.109375 25.1875 C 31.070312 25.148438 31.03125 25.109375 30.992188 25.070312 C 30.859375 24.9375 30.730469 24.808594 30.597656 24.675781 C 30.507812 24.582031 30.414062 24.488281 30.320312 24.394531 C 30.0625 24.140625 29.808594 23.886719 29.554688 23.632812 C 29.289062 23.367188 29.023438 23.097656 28.757812 22.832031 C 28.257812 22.332031 27.753906 21.828125 27.25 21.324219 C 26.679688 20.75 26.105469 20.175781 25.535156 19.601562 C 24.355469 18.421875 23.175781 17.242188 22 16.0625 C 22.148438 15.78125 22.34375 15.578125 22.566406 15.355469 C 22.605469 15.316406 22.644531 15.277344 22.683594 15.238281 C 22.8125 15.105469 22.945312 14.976562 23.074219 14.847656 C 23.164062 14.753906 23.257812 14.664062 23.351562 14.570312 C 23.601562 14.316406 23.855469 14.066406 24.109375 13.8125 C 24.371094 13.550781 24.636719 13.285156 24.898438 13.023438 C 25.339844 12.578125 25.785156 12.136719 26.226562 11.695312 C 26.738281 11.183594 27.25 10.667969 27.765625 10.15625 C 28.203125 9.71875 28.640625 9.277344 29.082031 8.839844 C 29.34375 8.578125 29.605469 8.3125 29.871094 8.050781 C 30.117188 7.804688 30.363281 7.558594 30.609375 7.3125 C 30.699219 7.21875 30.792969 7.128906 30.882812 7.039062 C 31.003906 6.914062 31.128906 6.792969 31.253906 6.667969 C 31.289062 6.632812 31.324219 6.59375 31.363281 6.558594 C 31.609375 6.3125 31.609375 6.3125 31.75 6.3125 Z M 31.75 6.3125 "/>
</g>
</svg>
